<?xml version="1.0"?>
<svg xmlns="http://www.w3.org/2000/svg" xmlns:xlink="http://www.w3.org/1999/xlink" xmlns:svgjs="http://svgjs.com/svgjs" version="1.1" width="512" height="512" x="0" y="0" viewBox="0 0 485 485" style="enable-background:new 0 0 512 512" xml:space="preserve" class=""><g>
<g xmlns="http://www.w3.org/2000/svg">
	<g>
		<path d="M485,395.669H0V89.331h485V395.669z M30,365.669h425V119.331H30V365.669z" fill="#ffffff" data-original="#000000" style="" class=""/>
	</g>
	<g>
		<path style="" d="M120.607,210.754h13.469l23.568,64.61h-15.288l-5.005-14.47H117.24    l-4.914,14.47H97.039L120.607,210.754z M134.895,250.612l-7.553-22.841l-7.735,22.841H134.895z" fill="#ffffff" data-original="#000000" class=""/>
		<path style="" d="M219.523,275.364v-38.675l-14.014,28.119h-8.008l-14.014-28.119v38.675    h-14.924v-64.61h16.197l16.744,33.762l16.835-33.762h16.106v64.61H219.523z" fill="#ffffff" data-original="#000000" class=""/>
		<path style="" d="M322.534,262.26v13.104h-45.408v-64.61h44.59v13.104H292.05v12.558h25.479    v12.104H292.05v13.74H322.534z" fill="#ffffff" data-original="#000000" class=""/>
		<path style="" d="M345.557,210.754l14.105,22.295l14.105-22.295h16.106l-22.386,32.76    l21.658,31.851h-16.107l-13.377-21.385l-13.377,21.385h-16.198l21.658-31.851l-22.386-32.76H345.557z" fill="#ffffff" data-original="#000000" class=""/>
	</g>
</g>
<g xmlns="http://www.w3.org/2000/svg">
</g>
<g xmlns="http://www.w3.org/2000/svg">
</g>
<g xmlns="http://www.w3.org/2000/svg">
</g>
<g xmlns="http://www.w3.org/2000/svg">
</g>
<g xmlns="http://www.w3.org/2000/svg">
</g>
<g xmlns="http://www.w3.org/2000/svg">
</g>
<g xmlns="http://www.w3.org/2000/svg">
</g>
<g xmlns="http://www.w3.org/2000/svg">
</g>
<g xmlns="http://www.w3.org/2000/svg">
</g>
<g xmlns="http://www.w3.org/2000/svg">
</g>
<g xmlns="http://www.w3.org/2000/svg">
</g>
<g xmlns="http://www.w3.org/2000/svg">
</g>
<g xmlns="http://www.w3.org/2000/svg">
</g>
<g xmlns="http://www.w3.org/2000/svg">
</g>
<g xmlns="http://www.w3.org/2000/svg">
</g>
</g></svg>
