<?xml version="1.0"?>
<svg xmlns="http://www.w3.org/2000/svg" xmlns:xlink="http://www.w3.org/1999/xlink" xmlns:svgjs="http://svgjs.com/svgjs" version="1.1" width="512" height="512" x="0" y="0" viewBox="0 0 449.172 449.172" style="enable-background:new 0 0 512 512" xml:space="preserve" class=""><g>
<g xmlns="http://www.w3.org/2000/svg">
	<g>
		<path d="M429.926,88.909H19.246C8.617,88.909,0,97.525,0,108.154v232.864c0,10.629,8.617,19.245,19.246,19.245h410.68    c10.629,0,19.246-8.616,19.246-19.245V108.154C449.172,97.525,440.555,88.909,429.926,88.909z M417.415,328.508H31.757V120.666    h385.658V328.508L417.415,328.508z" fill="#ffffff" data-original="#000000" style=""/>
		<path d="M152.249,304.75c4.063,0,8.029,0.076,11.985-1.051c6.854-1.951,12.893-6.766,16.246-13.063    c1.868-3.505,2.811-7.254,3.093-11.14v-0.006c0.062-0.848,0.103-1.698,0.103-2.557V144.372h-39.512    c-2.911,0-5.715,0.527-8.482,1.408c-7.412,2.357-13.682,8.563-16.417,15.794c-1.546,4.084-1.764,8.229-1.764,12.51v66.571    c1.195-0.578,2.593-0.616,3.827-0.082c4.461,1.936,9.064,3.25,13.312,3.804c1.946,0.253,3.525,0.371,4.972,0.371    c2.612,0,4.807-0.401,6.709-1.226c0.044-0.021,0.089-0.039,0.133-0.056c3.227-1.28,5.535-4.565,6.024-8.571l0.081-29.844    c0-2.537,2.056-4.594,4.593-4.594h17.486c2.537,0,4.593,2.057,4.593,4.594v28.248c0,3.764-0.741,9.184-4.277,13.62    c-4.469,5.61-11.687,7.965-16.955,8.953c-1.257,0.235-2.458,0.343-3.619,0.446c-0.496,0.045-0.996,0.088-1.51,0.145    c-1.352,0.146-2.821,0.248-4.494,0.311c-1.964,0.076-3.561,0.108-5.023,0.108c-1.308,0-2.528-0.028-3.732-0.088    c-5.247-0.257-10.688-0.888-17.633-2.045c-1.272-0.212-2.514-0.507-3.575-0.767c-0.321-0.08-0.621-0.201-0.91-0.34v51.105    c5.822,0,11.644,0,17.465,0C140.727,304.75,146.486,304.75,152.249,304.75z" fill="#ffffff" data-original="#000000" style=""/>
		<path d="M267.398,200.299l34.285-0.006c2.382,0,4.372,0.06,6.39,0.354c3.323,0.484,7.956,1.864,11.138,5.681    c0.03,0.035,0.058,0.071,0.088,0.106c3.454,4.405,3.718,10.489,0.673,15.502c-1.257,1.985-3.107,3.625-5.38,4.828    c5.227,1.823,9.875,5.557,10.578,11.871c0.355,3.198-0.328,6.381-1.876,8.73c-1.134,1.701-2.532,3.547-4.446,4.58    c-3.157,2.373-7.174,3.033-10.332,3.342c-1.163,0.113-2.421,0.167-3.964,0.167c-0.877,0-1.755-0.017-2.633-0.033    c-0.845-0.017-1.688-0.032-2.527-0.032h-31.917c-0.722,0-1.395-0.18-2-0.476l0.049,49.858c5.802,0,11.604,0,17.404,0    c5.764,0,11.525,0,17.288,0c3.703,0,7.448,0.181,11.063-0.772c6.979-1.843,13.175-6.271,16.787-12.572    c2.54-4.435,3.604-9.28,3.604-14.354c0-2.112,0-4.223,0-6.334V150.127c0-1.929,0-3.812,0-5.74l-35.212-0.016    c-4.292,0-8.493-0.062-12.629,1.307c-2.962,1.211-5.759,2.459-8.287,4.469c-2.95,2.335-5.377,5.277-7.129,8.606    c-2.019,3.836-3.021,8.14-3.021,12.468l0.024,29.546C266.033,200.472,266.703,200.299,267.398,200.299z" fill="#ffffff" data-original="#000000" style=""/>
		<path d="M279.68,243.378l12.844,0.015c5.452,0,6.309-3.779,6.309-5.25c0-1.76-0.817-3.354-2.188-4.267    c-1.162-0.801-2.524-0.955-4.363-0.955l-12.602,0.008V243.378L279.68,243.378z" fill="#ffffff" data-original="#000000" style=""/>
		<path d="M295.898,219.751c1.119-1.274,1.463-3.251,0.835-4.808c-0.593-1.445-1.864-2.584-3.151-2.807    c-0.127-0.022-0.913-0.21-2.717-0.169h-11.187v9.354l10.835,0.015c0.473,0,0.947-0.002,1.38-0.01    C293.137,221.326,294.759,221.052,295.898,219.751z" fill="#ffffff" data-original="#000000" style=""/>
		<path d="M191.47,206.53c3.313-2.313,6.996-4.037,11.24-5.246c2.598-0.74,5.104-1.15,7.759-1.584l1.178-0.195    c2.946-0.491,5.951-0.546,8.855-0.599c3.013-0.054,5.977-0.021,8.664,0.1c5.547,0.25,10.759,1.192,16.273,2.19l1.252,0.226    c0.334,0.061,0.683,0.128,1.039,0.204c2.127,0.447,3.646,2.323,3.646,4.495v4.726c0,1.548-0.779,2.992-2.073,3.841    c-1.295,0.85-2.932,0.988-4.35,0.372c-4.072-1.769-8.433-2.985-12.964-3.615c-3.049-0.423-6.264-0.482-8.956-0.166    c-3.42,0.405-6.138,1.254-8.308,2.597c-0.062,0.038-0.122,0.073-0.185,0.108c-2.961,1.648-5.427,5.112-6.282,8.825    c-1.184,4.862-0.61,10.164,1.48,13.89c1.694,3.015,4.588,5.322,8.376,6.678l0.026,0.008c4.215,1.135,7.81,1.479,11.183,1.068    c5.799-0.705,10.863-2.031,15.486-4.055c1.424-0.623,3.061-0.485,4.356,0.362c1.297,0.849,2.079,2.294,2.079,3.845v4.812    c0,2.119-1.45,3.963-3.508,4.464c-5.26,1.276-10.485,1.989-15.351,2.567c-2.987,0.354-6.053,0.354-8.757,0.354l-2.368,0.004    c0,0-0.005,0-0.008,0c-2.407,0-4.426-0.041-6.46-0.24c-2.607-0.254-5.699-0.607-8.865-1.289c-3.432-0.737-6.72-1.893-10.058-3.526    c-1.343-0.657-2.879-1.474-4.384-2.517l0.03,55.56c5.793,0,11.584,0,17.378,0c5.752,0,11.502,0,17.254,0    c3.848,0,7.707,0.169,11.459-0.847c6.211-1.851,11.408-5.312,15.274-10.549c2.621-4.096,4.414-8.367,4.797-13.276    c0.071-0.9,0.082-1.798,0.082-2.698c0-1.91,0-3.818,0-5.729V151.072c0-2.233,0-4.467,0-6.701h-18.019c-5.766,0-11.531,0-17.297,0    c-4.233,0-8.455-0.102-12.519,1.308c-7.653,2.655-14.257,8.563-16.896,16.36c-1.813,4.647-1.585,9.6-1.585,14.479L191.47,206.53z" fill="#ffffff" data-original="#000000" style=""/>
	</g>
</g>
<g xmlns="http://www.w3.org/2000/svg">
</g>
<g xmlns="http://www.w3.org/2000/svg">
</g>
<g xmlns="http://www.w3.org/2000/svg">
</g>
<g xmlns="http://www.w3.org/2000/svg">
</g>
<g xmlns="http://www.w3.org/2000/svg">
</g>
<g xmlns="http://www.w3.org/2000/svg">
</g>
<g xmlns="http://www.w3.org/2000/svg">
</g>
<g xmlns="http://www.w3.org/2000/svg">
</g>
<g xmlns="http://www.w3.org/2000/svg">
</g>
<g xmlns="http://www.w3.org/2000/svg">
</g>
<g xmlns="http://www.w3.org/2000/svg">
</g>
<g xmlns="http://www.w3.org/2000/svg">
</g>
<g xmlns="http://www.w3.org/2000/svg">
</g>
<g xmlns="http://www.w3.org/2000/svg">
</g>
<g xmlns="http://www.w3.org/2000/svg">
</g>
</g></svg>
