<?xml version="1.0"?>
<svg xmlns="http://www.w3.org/2000/svg" xmlns:xlink="http://www.w3.org/1999/xlink" xmlns:svgjs="http://svgjs.com/svgjs" version="1.1" width="512" height="512" x="0" y="0" viewBox="0 0 512 512" style="enable-background:new 0 0 512 512" xml:space="preserve" class=""><g><g xmlns="http://www.w3.org/2000/svg"><path d="m456 80h-400c-30.878 0-56 25.122-56 56v240c0 30.878 25.122 56 56 56h400c30.878 0 56-25.122 56-56v-240c0-30.878-25.122-56-56-56zm-400 32h400c13.233 0 24 10.767 24 24v32h-448v-32c0-13.233 10.767-24 24-24zm400 288h-400c-13.233 0-24-10.767-24-24v-176h448v176c0 13.233-10.767 24-24 24z" fill="#ffffff" data-original="#000000" style=""/><path d="m112 352h-16c-8.836 0-16-7.164-16-16v-16c0-8.836 7.164-16 16-16h16c8.836 0 16 7.164 16 16v16c0 8.836-7.164 16-16 16z" fill="#ffffff" data-original="#000000" style=""/></g></g></svg>
